<svg height="64" viewBox="0 0 64 64" width="64" fill="#F66E9F" xmlns="http://www.w3.org/2000/svg"><path d="m59 56h-4v-31.563l.668.382a3.009 3.009 0 0 0 1.491.394 2.975 2.975 0 0 0 .867-.128 3.005 3.005 0 0 0 1.813-1.528l.209-.417a3 3 0 0 0 -1.194-3.947l-3.854-2.202v-9.175a2.993 2.993 0 0 0 -1-5.816h-8a2.993 2.993 0 0 0 -1.015 5.811v3.458l-11.497-6.569a3.008 3.008 0 0 0 -2.976 0l-25.366 14.493a3 3 0 0 0 -1.194 3.947l.208.416a3 3 0 0 0 4.172 1.263l.668-.382v31.563h-4a3 3 0 0 0 0 6h54a3 3 0 0 0 0-6zm-13-52h8a1 1 0 0 1 0 2h-8a1 1 0 0 1 0-2zm.985 4h6.015v7.848l-6.015-3.437zm-39.646 15.083a1 1 0 0 1 -1.39-.422l-.208-.416a1 1 0 0 1 .4-1.315l25.359-14.495a1 1 0 0 1 .992 0l25.365 14.5a1 1 0 0 1 .4 1.315l-.209.417a1 1 0 0 1 -1.39.421l-23.169-13.246a3.009 3.009 0 0 0 -2.977 0zm3.661.217 20.5-11.722a1 1 0 0 1 .992 0l20.508 11.716v32.706h-42zm48 36.7h-54a1 1 0 0 1 0-2h54a1 1 0 0 1 0 2z"/><path d="m13 52h4v2h-4z"/><path d="m47 52h4v2h-4z"/><path d="m19 52h2v2h-2z"/><path d="m43 52h2v2h-2z"/><path d="m46.984 31.677a10.98 10.98 0 0 0 -16.984-8.887 10.989 10.989 0 0 0 -17 9.21c0 9.446 15.8 19.428 16.47 19.848a1 1 0 0 0 1.059 0c.089-.056 2.042-1.283 4.585-3.257a32.41 32.41 0 0 0 4.371 3.265 1 1 0 0 0 1.03 0c.428-.256 10.485-6.376 10.485-13.856a7 7 0 0 0 -4.016-6.323zm-16.984 18.131c-2.721-1.803-15-10.353-15-17.808a8.99 8.99 0 0 1 14.4-7.189 1 1 0 0 0 1.2 0 8.989 8.989 0 0 1 14.353 6.262 6.947 6.947 0 0 0 -.953-.073 6.619 6.619 0 0 0 -4 1.687 6.619 6.619 0 0 0 -4-1.687 7.008 7.008 0 0 0 -7 7c0 3.527 2.237 6.752 4.645 9.2-1.594 1.227-2.939 2.144-3.645 2.608zm10 .005c-1.982-1.313-9-6.334-9-11.813a5.006 5.006 0 0 1 5-5 5.684 5.684 0 0 1 3.332 1.745 1 1 0 0 0 1.336 0 5.684 5.684 0 0 1 3.332-1.745 5.006 5.006 0 0 1 5 5c0 5.479-7.018 10.5-9 11.813z"/></svg>