<svg id="Capa_1" enable-background="new 0 0 512.002 512.002" height="64" viewBox="0 0 512.002 512.002" width="64" fill="#F66E9F" xmlns="http://www.w3.org/2000/svg"><g id="XMLID_1947_"><g id="XMLID_264_"><g id="XMLID_265_"><path id="XMLID_352_" d="m488.742 120.167c-2.698-4.819-8.793-6.538-13.611-3.839-4.818 2.698-6.538 8.792-3.84 13.611 13.549 24.196 20.71 52.367 20.71 81.467 0 81.727-56.415 148.217-125.759 148.217-69.343 0-125.758-66.49-125.758-148.217 0-81.728 56.415-148.217 125.758-148.217 15.541 0 30.709 3.305 45.082 9.823 5.03 2.279 10.955.051 13.237-4.978 2.281-5.03.053-10.957-4.977-13.237-16.985-7.703-34.933-11.608-53.342-11.608-36.044 0-69.068 15.185-94.539 40.293-11.358-22.476-27.088-41.668-46.094-56.046-23.726-17.949-51.338-27.436-79.849-27.436-39.227 0-76.014 17.696-103.585 49.829-27.197 31.695-42.174 73.739-42.174 118.388s14.977 86.693 42.174 118.388c19.31 22.504 43.143 37.916 69.165 45.138l-6.982 25.982c-1.597 5.94-.365 12.147 3.378 17.029 3.743 4.881 9.418 7.681 15.568 7.681h15.799c3.051 9.383 2.312 19.727-2.245 28.633-8.38 16.374-8.38 35.925 0 52.299 5.459 10.669 5.459 23.409 0 34.078-2.516 4.917-.569 10.942 4.348 13.458 1.458.746 3.014 1.1 4.547 1.1 3.635 0 7.141-1.989 8.91-5.447 8.378-16.374 8.378-35.925 0-52.299-5.46-10.669-5.46-23.408 0-34.078 6.002-11.731 7.68-25.088 5.082-37.744h8.471c6.15 0 11.825-2.799 15.568-7.681 3.743-4.881 4.975-11.088 3.378-17.029l-6.978-25.966c22.159-6.137 42.693-18.208 60.222-35.553 19.725 38.835 52.554 67.771 91.432 78.671l-6.997 26.037c-1.597 5.94-.365 12.147 3.378 17.029 3.743 4.881 9.418 7.681 15.568 7.681h15.798c3.051 9.383 2.312 19.727-2.245 28.633-8.378 16.374-8.378 35.925 0 52.299 1.77 3.458 5.275 5.447 8.91 5.447 1.533 0 3.089-.354 4.547-1.1 4.917-2.516 6.863-8.541 4.348-13.458-5.459-10.669-5.459-23.409 0-34.078 6.003-11.731 7.682-25.089 5.083-37.744h8.471c6.15 0 11.825-2.799 15.568-7.681 3.743-4.881 4.975-11.088 3.378-17.029l-6.982-25.981c26.022-7.223 49.855-22.634 69.165-45.138 27.196-31.695 42.174-73.739 42.174-118.388-.001-32.514-8.044-64.064-23.26-91.239zm-321.024 242.268h-43.917l7.214-26.844c4.867.559 9.786.844 14.745.844 4.961 0 9.88-.283 14.745-.84zm-21.958-46c-69.344 0-125.759-66.49-125.759-148.217 0-81.728 56.415-148.218 125.759-148.218 46.733 0 89.981 31.127 111.549 79.772-22.893 29.721-36.824 68.833-36.824 111.634 0 22.987 4.021 44.909 11.285 64.886-23.405 25.929-53.742 40.143-86.01 40.143zm242.441 89.188h-43.917l7.217-26.855c4.848.565 9.765.855 14.741.855 4.959 0 9.878-.285 14.745-.844z"/><path id="XMLID_808_" d="m452.631 99.35c2.63 0 5.21-1.07 7.07-2.93 1.859-1.86 2.93-4.44 2.93-7.07s-1.07-5.21-2.93-7.07-4.44-2.93-7.07-2.93-5.21 1.07-7.07 2.93c-1.859 1.86-2.93 4.43-2.93 7.07 0 2.63 1.07 5.21 2.93 7.07s4.44 2.93 7.07 2.93z"/></g></g></g></svg>