<?xml version="1.0" encoding="utf-8"?>
<!-- Generator: Adobe Illustrator 21.0.0, SVG Export Plug-In . SVG Version: 6.00 Build 0)  -->
<svg xmlns="http://www.w3.org/2000/svg" xmlns:xlink="http://www.w3.org/1999/xlink" fill="#F66E9F" version="1.1" id="Layer_1" x="0px" y="0px" viewBox="0 0 64 64" style="enable-background:new 0 0 64 64;" xml:space="preserve" width="64" height="64">
<style type="text/css">
	.st0{fill:#f4b2b0;} 
	.st1{fill:#f4b2b0;}
	.st2{fill:#f4b2b0;}
</style>
<g>
	<path class="st0" d="M33.6,16.2c0.7-0.8,0.6-2-0.2-2.7c-0.2-0.1-0.3-0.2-0.5-0.3c-0.7-0.3-1.5-0.1-2,0.5l-9.6,10.3h-6.9   c-1.1-0.1-2.2,0.3-2.9,1.2l-8,12.3c-0.7,1.1-0.4,2.5,0.7,3.2c0.1,0,0.1,0.1,0.2,0.1l0,0c1,0.5,2.2,0.2,2.8-0.8l5.9-9.7h0V41   L9.4,58.5c-0.3,1,0.3,2,1.2,2.3c0.1,0,0.3,0.1,0.4,0.1c1.2,0,2.2-0.9,2.4-2.1L16.4,44h4.9l3.2,15.3c0.2,1.1,1.3,1.8,2.4,1.6   c0,0,0.1,0,0.1,0l0,0c1.1-0.3,1.7-1.4,1.5-2.5L25,41V26.1L33.6,16.2z"/>
	<path class="st0" d="M23,18c0,2.8-2.2,5-5,5s-5-2.2-5-5c0-2.8,2.2-5,5-5C20.7,13,23,15.2,23,18z"/>
	<path class="st1" d="M60.5,16.2c0.7-0.8,0.6-2-0.2-2.7c-0.2-0.1-0.3-0.2-0.5-0.3c-0.7-0.3-1.5-0.1-2,0.5l-9.6,10.3h-6.9   c-1.1-0.1-2.2,0.3-2.9,1.2l-8,12.3c-0.7,1.1-0.4,2.5,0.7,3.2c0.1,0,0.1,0.1,0.2,0.1l0,0c1,0.5,2.2,0.2,2.8-0.8l5.9-9.7h0V41   l-3.6,17.5c-0.3,1,0.3,2,1.2,2.3c0.1,0,0.3,0.1,0.4,0.1c1.2,0,2.2-0.9,2.4-2.1L43.4,44h4.9l3.2,15.3c0.2,1.1,1.3,1.8,2.4,1.6   c0,0,0.1,0,0.1,0l0,0c1.1-0.3,1.7-1.4,1.5-2.5L51.9,41V26.1L60.5,16.2z"/>
	<path class="st1" d="M50,18c0,2.8-2.2,5-5,5c-2.8,0-5-2.2-5-5c0-2.8,2.2-5,5-5C47.7,13,50,15.2,50,18z"/>
	<ellipse class="st2" cx="6" cy="13" rx="3" ry="2"/>
	<rect x="9" y="3" class="st2" width="8" height="4"/>
	<path d="M33.2,12.2c-1.1-0.4-2.3-0.1-3.1,0.7l-6.5,7c1.1-3.1-0.6-6.5-3.8-7.6s-6.5,0.6-7.6,3.8c-0.8,2.5,0.1,5.3,2.2,6.8h-0.2   c-1.4-0.1-2.7,0.5-3.6,1.5c0,0-0.1,0.1-0.1,0.1l-8,12.3c-0.5,0.8-0.7,1.8-0.4,2.7c0.2,0.9,0.8,1.6,1.6,2.1c1.5,0.8,3.3,0.3,4.1-1.2   l4.1-6.7v7.2L8.5,58.3c-0.2,0.9,0,1.8,0.6,2.5c0.5,0.6,1.3,1,2.1,1c1.7,0,3.1-1.2,3.4-2.9L17.2,45h3.3l3.1,14.5   c0.2,0.8,0.7,1.6,1.4,2c0.5,0.3,1,0.4,1.6,0.4c0.3,0,0.5,0,0.8-0.1c1.6-0.4,2.6-2.1,2.2-3.7L26,40.9V26.5l8.3-9.7   c0.6-0.7,0.8-1.7,0.6-2.6C34.7,13.3,34.1,12.5,33.2,12.2z M18,14c2.2,0,4,1.8,4,4s-1.8,4-4,4c-2.2,0-4-1.8-4-4   C14,15.8,15.8,14,18,14z M32.8,15.5l-8.6,9.9c-0.2,0.2-0.2,0.4-0.2,0.7V41c0,0.1,0,0.1,0,0.2l3.6,17.4c0.1,0.6-0.2,1.2-0.8,1.4   c-0.3,0.1-0.5,0-0.7-0.1c-0.3-0.2-0.4-0.4-0.5-0.7l-3.2-15.3c-0.1-0.5-0.5-0.8-1-0.8h-4.9c-0.5,0-0.9,0.3-1,0.8l-2.9,14.7   c-0.2,0.7-0.7,1.2-1.4,1.2c-0.2,0-0.4-0.1-0.5-0.3c-0.2-0.3-0.2-0.6-0.2-0.9L14,41.2c0-0.1,0-0.1,0-0.2V30.2c0-0.6-0.4-1-1-1   c-0.3,0-0.7,0.2-0.9,0.5l-5.9,9.7c-0.3,0.5-1,0.7-1.5,0.4c-0.3-0.2-0.5-0.5-0.6-0.8C4,38.7,4,38.3,4.2,38l8-12.3   c0.5-0.6,1.3-0.9,2.1-0.8h6.9c0.3,0,0.5-0.1,0.7-0.3l9.6-10.3c0.2-0.3,0.6-0.4,0.9-0.3c0.3,0.1,0.5,0.3,0.5,0.6   C33.1,15,33,15.3,32.8,15.5z"/>
	<path d="M37.7,24.4c0,0-0.1,0.1-0.1,0.1l-8,12.3c-0.5,0.8-0.7,1.8-0.4,2.7c0.2,0.9,0.8,1.6,1.6,2.1c1.5,0.8,3.3,0.3,4.1-1.2   l4.1-6.7v6.2l-3.5,18.4c-0.2,0.9,0,1.8,0.6,2.5c0.5,0.6,1.3,1,2.1,1c1.7,0,3.1-1.2,3.4-2.9L44.2,45h3.3l3.1,14.5   c0.2,0.8,0.7,1.6,1.4,2c0.5,0.3,1,0.4,1.6,0.4c0.3,0,0.5,0,0.8-0.1c1.6-0.4,2.6-2.1,2.2-3.7l-3.5-18.3V26.5l8.3-9.7   c0.6-0.7,0.8-1.7,0.6-2.6c-0.2-0.9-0.8-1.7-1.7-2c-1.1-0.4-2.3-0.1-3.1,0.7l-6.5,7c1.1-3.1-0.6-6.5-3.8-7.6s-6.5,0.6-7.6,3.8   c-0.8,2.5,0.1,5.3,2.2,6.8h-0.2C40,22.8,38.6,23.4,37.7,24.4z M58.6,14.3c0.2-0.3,0.6-0.4,0.9-0.3c0.3,0.1,0.5,0.3,0.5,0.6   c0.1,0.3,0,0.6-0.2,0.8l-8.6,9.9c-0.2,0.2-0.2,0.4-0.2,0.7V40c0,0.1,0,0.1,0,0.2l3.6,18.4c0.1,0.6-0.2,1.2-0.8,1.4   c-0.3,0.1-0.5,0-0.7-0.1c-0.3-0.2-0.4-0.4-0.5-0.7l-3.2-15.3c-0.1-0.5-0.5-0.8-1-0.8h-4.9c-0.5,0-0.9,0.3-1,0.8l-2.9,14.7   c-0.2,0.7-0.7,1.2-1.4,1.2c-0.2,0-0.4-0.1-0.5-0.3c-0.2-0.3-0.2-0.6-0.2-0.9l3.6-18.5c0-0.1,0-0.1,0-0.2v-9.8c0-0.6-0.4-1-1-1   c-0.3,0-0.7,0.2-0.9,0.5l-5.9,9.7c-0.3,0.5-1,0.7-1.5,0.4c-0.3-0.2-0.5-0.5-0.6-0.8c-0.1-0.4,0-0.8,0.2-1.1l8-12.3   c0.5-0.6,1.3-0.9,2.1-0.8h6.9c0.3,0,0.5-0.1,0.7-0.3L58.6,14.3z M44.9,14c2.2,0,4,1.8,4,4s-1.8,4-4,4c-2.2,0-4-1.8-4-4   C40.9,15.8,42.7,14,44.9,14z"/>
	<path d="M17,2H9C8.4,2,8,2.4,8,3l0,7.4C7.4,10.1,6.7,10,6,10c-2.2,0-4,1.3-4,3s1.8,3,4,3s4-1.3,4-3l0,0V8h7c0.6,0,1-0.4,1-1V3   C18,2.4,17.6,2,17,2z M6,14c-1.2,0-2-0.6-2-1s0.8-1,2-1c1.2,0,2,0.6,2,1v0h0C8,13.4,7.2,14,6,14z M16,6h-6V4h6V6z"/>
</g>
</svg>
