<?xml version="1.0" encoding="iso-8859-1"?>
<!-- Generator: Adobe Illustrator 19.0.0, SVG Export Plug-In . SVG Version: 6.00 Build 0)  -->
<svg version="1.1" id="Capa_1" xmlns="http://www.w3.org/2000/svg" xmlns:xlink="http://www.w3.org/1999/xlink" x="0px" y="0px"
	 height="64" viewBox="0 0 512 512" width="64" fill="#F66E9F" style="enable-background:new 0 0 512 512;" xml:space="preserve">
<g>
	<g>
		<path d="M162.307,176.564c5.255-28.768,21.248-116.314,29.223-167.9c0.335-2.168-0.294-4.374-1.721-6.04
			C188.381,0.959,186.297,0,184.103,0H72.219c-2.096,0-4.096,0.875-5.519,2.414c-1.422,1.538-2.137,3.602-1.973,5.692
			c0.754,9.578,1.976,19.877,3.271,30.779c5.316,44.777,12.596,106.102-3.957,197.532c-2.196,12.129-2.557,34.466-2.588,56.733
			c-3.401,22.168-5.057,50.69-5.057,87.182c0,36.775,4.817,68.107,13.929,90.61C84.066,504.877,104.688,512,119.568,512
			c40.738,0,63.172-46.761,63.172-131.669c0-71.785-6.293-113.575-20.357-134.772c-2.221-23.695-3.935-46.76-1.546-60.909
			C160.928,184.113,161.452,181.248,162.307,176.564z M78.317,242.473c9.369,1.554,22.717,3.177,37.66,3.177
			c9.902,0,20.495-0.74,31.071-2.663c0.18,1.963,0.365,3.94,0.553,5.929c0,0.001,0,0.001,0,0.002
			c0.004,0.042,0.008,0.084,0.012,0.126c0.082,0.866,0.165,1.733,0.248,2.603c-6.603,10.131-18.641,26.85-34.963,42.25
			c-6.406-5.807-11.901-11.793-16.444-17.313c-8.501-10.331-14.783-20.305-18.816-27.408
			C77.832,246.728,78.057,244.48,78.317,242.473z M124.937,303.676c4.731-4.536,9.381-9.417,13.929-14.631
			c4.192-4.807,7.934-9.478,11.237-13.84c1.36,15.005,2.45,29.765,2.45,42.63c0,0.225,0,0.448,0,0.673
			C142.312,314.785,133.088,309.565,124.937,303.676z M152.499,334.725c-0.191,20.443-1.084,39.097-5.301,52.715
			c-5.309,17.144-15.078,24.459-32.666,24.459c-17.588,0-27.357-7.315-32.666-24.459c-4.087-13.2-5.053-31.13-5.282-50.837
			c12.362-5.208,24.624-12.738,36.495-22.418C124.408,322.768,137.539,330.122,152.499,334.725z M76.484,293.71c0,0,0-0.001,0-0.002
			c0.008-5.861,0.039-11.808,0.121-17.579c6.445,8.952,14.593,18.778,24.502,27.981c-7.536,5.953-15.769,11.349-24.597,15.664
			c0-0.647,0-1.291,0-1.94c0-3.166-0.007-6.476-0.013-9.878C76.487,303.335,76.478,298.543,76.484,293.71z M161.561,391.883
			c0.01-0.034,0.019-0.069,0.029-0.103c0.322-1.044,0.621-2.115,0.91-3.199c0.064-0.252,0.133-0.506,0.199-0.763
			c0.278-1.082,0.541-2.181,0.788-3.3c0.055-0.248,0.106-0.501,0.16-0.751c0.222-1.04,0.433-2.092,0.63-3.161
			c0.032-0.175,0.067-0.346,0.099-0.521c0.212-1.172,0.406-2.367,0.59-3.573c0.048-0.31,0.095-0.622,0.14-0.934
			c0.175-1.198,0.341-2.408,0.493-3.636c0.031-0.248,0.058-0.501,0.088-0.751c0.131-1.097,0.252-2.207,0.365-3.327
			c0.029-0.286,0.06-0.569,0.088-0.857c0.121-1.251,0.231-2.516,0.332-3.793c0.029-0.361,0.056-0.724,0.083-1.088
			c0.097-1.292,0.188-2.591,0.268-3.907c0.013-0.214,0.023-0.433,0.036-0.648c0.069-1.187,0.131-2.384,0.188-3.59
			c0.018-0.373,0.036-0.745,0.052-1.12c0.05-1.145,0.097-2.295,0.137-3.455c0.316,9.627,0.474,19.929,0.474,30.924
			c0,35.069-4.69,116.637-48.141,116.637c-30.694,0-44.303-45.05-47.422-93.7c0.038,0.072,0.08,0.137,0.119,0.209
			c0.454,0.852,0.924,1.681,1.411,2.485c0.097,0.161,0.197,0.318,0.296,0.477c0.49,0.79,0.992,1.562,1.513,2.305
			c0.03,0.043,0.059,0.089,0.09,0.132c0.543,0.769,1.109,1.505,1.688,2.224c0.118,0.146,0.235,0.293,0.354,0.438
			c0.573,0.694,1.161,1.366,1.767,2.012c0.105,0.112,0.214,0.22,0.32,0.331c0.589,0.614,1.192,1.209,1.812,1.779
			c0.066,0.061,0.13,0.125,0.196,0.185c0.658,0.596,1.337,1.163,2.03,1.711c0.143,0.113,0.286,0.225,0.43,0.336
			c0.694,0.533,1.402,1.046,2.13,1.532c0.107,0.071,0.217,0.138,0.325,0.208c0.694,0.453,1.402,0.885,2.127,1.295
			c0.106,0.06,0.209,0.124,0.316,0.182c0.772,0.428,1.565,0.828,2.373,1.208c0.167,0.079,0.336,0.156,0.505,0.233
			c0.819,0.372,1.651,0.727,2.506,1.051c0.095,0.036,0.193,0.068,0.288,0.104c0.812,0.302,1.642,0.581,2.486,0.841
			c0.146,0.045,0.29,0.093,0.438,0.137c0.889,0.264,1.797,0.501,2.72,0.718c0.191,0.045,0.383,0.087,0.575,0.13
			c0.949,0.211,1.91,0.405,2.895,0.568c0.065,0.011,0.131,0.018,0.196,0.029c0.951,0.154,1.922,0.281,2.907,0.39
			c0.187,0.021,0.372,0.044,0.56,0.063c1.007,0.102,2.032,0.181,3.075,0.237c0.21,0.011,0.422,0.019,0.633,0.029
			c1.085,0.049,2.183,0.082,3.307,0.082c2.282,0,4.485-0.101,6.61-0.303C141.689,424.672,154.943,413.254,161.561,391.883z
			 M147.521,173.862c-0.877,4.799-1.412,7.734-1.505,8.284c0,0,0,0,0,0.001c-1.998,11.834-1.58,27.705-0.261,45.45
			c-24.59,4.736-50.168,2.074-64.895-0.332c14.276-87.121,7.259-146.388,2.064-190.152c-0.914-7.7-1.792-15.095-2.486-22.081h94.877
			C167.031,67.059,152.482,146.702,147.521,173.862z"/>
	</g>
</g>
<g>
	<g>
		<path d="M448.639,319c-4.613-5.753-10.283-12.342-16.285-19.318c-14.431-16.771-32.391-37.644-47.24-60.287
			c-17.66-26.928-21.123-61.792-18.724-83.465c0.61-5.503-1.167-11.008-4.876-15.104c-3.693-4.08-8.947-6.338-14.478-6.322
			l-41.872,0.477c-3.097,0.022-5.93,1.115-8.15,2.93c-8.319-2.487-20.482-10.431-29.744-34.511
			c-5.163-13.426-20.359-43.728-45.166-90.068l-1.978-3.69c-1.963-3.655-6.516-5.03-10.177-3.068
			c-3.657,1.963-5.031,6.519-3.068,10.177l1.971,3.677c24.168,45.146,39.516,75.704,44.388,88.369
			c2.45,6.37,5.13,11.849,7.945,16.562c-2.536,6.846-6.675,17.545-11.826,29.153c-7.933,17.878-15.657,32.087-22.767,41.972
			c-8.936-11.87-19.985-26.533-33.388-44.307c-2.499-3.315-7.211-3.974-10.526-1.476c-3.315,2.499-3.975,7.211-1.476,10.526
			c37.292,49.454,56.43,74.91,62.056,82.54c8.412,11.407,32.04,29.093,70.218,52.569c1.391,2.171,3.17,4.095,5.268,5.619
			l86.044,62.506c5.585,4.134,12.268,6.218,18.962,6.218c6.016,0,12.04-1.683,17.281-5.073c7.563-4.891,12.726-12.795,14.164-21.686
			C456.631,335.066,454.24,325.983,448.639,319z M236.199,209.253c14.997-19.167,28.46-50.271,35.999-69.562
			c6.979,6.949,14.03,10.586,19.937,12.446c-0.003,0.16-0.004,0.319-0.007,0.479c-0.027,1.419-0.049,2.835-0.061,4.245
			c0,0.011,0,0.022,0,0.033c-0.012,1.447-0.014,2.888-0.011,4.325c0.001,0.272,0.002,0.544,0.003,0.816
			c0.012,2.864,0.055,5.707,0.125,8.528c0.006,0.249,0.013,0.497,0.019,0.746c0.076,2.842,0.179,5.66,0.308,8.452
			c0.01,0.215,0.02,0.43,0.03,0.646c0.134,2.813,0.294,5.599,0.478,8.355c0.013,0.19,0.025,0.379,0.038,0.568
			c0.189,2.777,0.4,5.522,0.634,8.234c0.014,0.159,0.027,0.318,0.041,0.476c0.151,1.738,0.311,3.461,0.479,5.17
			c-7.512,10.559-20.281,24.453-38.877,31.605C252.499,230.97,246.313,222.704,236.199,209.253z M267.229,246.471
			c12.269-5.832,22.049-13.923,29.551-21.957c0.276,1.933,0.56,3.838,0.85,5.714c0.01,0.063,0.019,0.127,0.029,0.19
			c0.381,2.459,0.773,4.867,1.173,7.221c0.009,0.051,0.017,0.102,0.026,0.153c0.401,2.356,0.81,4.657,1.224,6.901
			c0.009,0.048,0.018,0.097,0.027,0.146c0.208,1.123,0.416,2.233,0.626,3.327c0.002,0.011,0.004,0.022,0.006,0.033
			c0.207,1.079,0.415,2.142,0.623,3.191c0.009,0.044,0.017,0.089,0.026,0.133c0.209,1.052,0.419,2.09,0.629,3.111
			c0.009,0.045,0.019,0.09,0.028,0.135c0.202,0.984,0.405,1.954,0.607,2.908c0.011,0.053,0.022,0.106,0.033,0.158
			c0.208,0.98,0.416,1.944,0.623,2.893c0.013,0.058,0.025,0.114,0.038,0.172c0.197,0.9,0.393,1.785,0.589,2.655
			c0.014,0.064,0.029,0.128,0.043,0.192c0.202,0.896,0.402,1.776,0.602,2.641c0.02,0.087,0.04,0.172,0.06,0.258
			c0.184,0.796,0.367,1.578,0.549,2.346c0.019,0.081,0.039,0.164,0.058,0.246c0.191,0.806,0.381,1.594,0.569,2.367
			c0.028,0.117,0.056,0.231,0.085,0.347c0.169,0.693,0.337,1.374,0.503,2.041c0.016,0.063,0.032,0.13,0.047,0.193
			C289.607,263.384,276.327,253.995,267.229,246.471z M440.359,341.518c-0.772,4.771-3.431,8.842-7.488,11.465
			c-5.85,3.782-13.54,3.54-19.192-0.645l-86.099-62.546c-0.768-0.557-1.372-1.276-1.777-2.107c-0.005-0.01-0.007-0.02-0.012-0.03
			c-0.055-0.115-0.089-0.231-0.136-0.348c-0.066-0.163-0.141-0.321-0.192-0.492c-1.557-5.197-4.239-14.745-7.081-27.506
			c-0.005-0.022-0.01-0.043-0.015-0.065c-0.13-0.585-0.261-1.178-0.392-1.777c-0.006-0.025-0.011-0.049-0.016-0.074
			c-0.128-0.587-0.256-1.181-0.385-1.78c-0.009-0.041-0.017-0.08-0.026-0.121c-0.126-0.591-0.253-1.189-0.38-1.792
			c-0.01-0.05-0.021-0.098-0.031-0.148c-0.123-0.586-0.246-1.18-0.369-1.777c-0.015-0.071-0.029-0.141-0.044-0.213
			c-0.12-0.583-0.239-1.172-0.359-1.765c-0.018-0.089-0.036-0.176-0.053-0.264c-0.116-0.578-0.232-1.163-0.348-1.751
			c-0.021-0.106-0.042-0.211-0.063-0.318c-0.114-0.579-0.227-1.164-0.341-1.752c-0.023-0.119-0.046-0.236-0.069-0.355
			c-0.114-0.593-0.228-1.193-0.341-1.795c-0.021-0.112-0.042-0.223-0.063-0.336c-0.114-0.608-0.227-1.221-0.34-1.838
			c-0.021-0.114-0.042-0.226-0.063-0.34c-0.112-0.615-0.224-1.235-0.335-1.858c-0.021-0.12-0.043-0.238-0.064-0.358
			c-0.109-0.61-0.216-1.225-0.324-1.843c-0.025-0.142-0.049-0.283-0.074-0.425c-0.105-0.605-0.209-1.215-0.312-1.827
			c-0.026-0.156-0.053-0.31-0.079-0.466c-0.103-0.615-0.206-1.235-0.308-1.858c-0.025-0.155-0.051-0.309-0.076-0.464
			c-0.1-0.614-0.2-1.234-0.299-1.855c-0.027-0.171-0.055-0.341-0.082-0.512c-0.099-0.623-0.196-1.251-0.293-1.88
			c-0.026-0.169-0.052-0.337-0.078-0.507c-0.095-0.623-0.19-1.251-0.284-1.881c-0.028-0.186-0.056-0.37-0.083-0.557
			c-0.091-0.617-0.181-1.238-0.271-1.861c-0.029-0.202-0.058-0.404-0.087-0.607c-0.088-0.617-0.175-1.237-0.261-1.859
			c-0.029-0.211-0.059-0.421-0.088-0.633c-0.086-0.626-0.171-1.256-0.255-1.887c-0.028-0.208-0.056-0.416-0.083-0.625
			c-0.084-0.635-0.166-1.273-0.248-1.913c-0.027-0.214-0.055-0.427-0.082-0.641c-0.08-0.632-0.158-1.267-0.236-1.904
			c-0.028-0.228-0.056-0.455-0.084-0.683c-0.077-0.635-0.152-1.273-0.226-1.912c-0.027-0.231-0.054-0.461-0.081-0.693
			c-0.074-0.641-0.146-1.285-0.218-1.931c-0.026-0.236-0.052-0.471-0.078-0.708c-0.07-0.639-0.138-1.28-0.206-1.923
			c-0.026-0.248-0.052-0.496-0.078-0.745c-0.067-0.645-0.132-1.293-0.196-1.943c-0.025-0.247-0.049-0.495-0.074-0.743
			c-0.063-0.649-0.125-1.3-0.186-1.953c-0.024-0.254-0.047-0.507-0.071-0.762c-0.06-0.65-0.117-1.304-0.174-1.958
			c-0.023-0.264-0.046-0.527-0.069-0.792c-0.055-0.644-0.108-1.291-0.161-1.94c-0.022-0.277-0.045-0.553-0.067-0.83
			c-0.051-0.644-0.1-1.29-0.148-1.938c-0.021-0.286-0.043-0.572-0.064-0.859c-0.046-0.636-0.091-1.274-0.135-1.914
			c-0.021-0.302-0.041-0.604-0.061-0.907c-0.042-0.634-0.082-1.269-0.122-1.906c-0.019-0.311-0.038-0.623-0.057-0.935
			c-0.038-0.629-0.073-1.26-0.108-1.892c-0.018-0.321-0.035-0.643-0.053-0.965c-0.033-0.629-0.065-1.261-0.096-1.893
			c-0.016-0.329-0.032-0.658-0.047-0.987c-0.029-0.625-0.056-1.253-0.082-1.881c-0.014-0.34-0.028-0.68-0.042-1.02
			c-0.024-0.621-0.047-1.244-0.069-1.868c-0.012-0.351-0.024-0.702-0.036-1.054c-0.02-0.616-0.038-1.234-0.055-1.853
			c-0.01-0.363-0.02-0.726-0.029-1.09c-0.015-0.607-0.029-1.215-0.041-1.823c-0.008-0.379-0.015-0.758-0.022-1.137
			c-0.011-0.603-0.02-1.207-0.028-1.812c-0.005-0.386-0.01-0.772-0.014-1.159c-0.006-0.594-0.011-1.189-0.014-1.784
			c-0.002-0.406-0.004-0.812-0.005-1.219c-0.002-0.583-0.002-1.167-0.001-1.751c0.001-0.419,0.002-0.839,0.004-1.259
			c0.003-0.571,0.007-1.142,0.012-1.715c0.004-0.44,0.009-0.88,0.015-1.321c0.007-0.558,0.016-1.117,0.025-1.677
			c0.008-0.452,0.016-0.905,0.026-1.358c0.011-0.55,0.024-1.101,0.038-1.652c0.006-0.23,0.012-0.46,0.019-0.69l39.982-0.454
			c0.018-0.001,0.035-0.001,0.052-0.001c1.62,0,2.644,0.863,3.114,1.382c0.482,0.532,1.264,1.677,1.078,3.359
			c-2.804,25.311,1.266,63.129,21.094,93.363c15.386,23.461,33.7,44.746,48.416,61.848c5.915,6.874,11.502,13.367,15.953,18.917
			C439.901,332.13,441.124,336.787,440.359,341.518z"/>
	</g>
</g>
<g>
</g>
<g>
</g>
<g>
</g>
<g>
</g>
<g>
</g>
<g>
</g>
<g>
</g>
<g>
</g>
<g>
</g>
<g>
</g>
<g>
</g>
<g>
</g>
<g>
</g>
<g>
</g>
<g>
</g>
</svg>
