<svg id="Layer_3" enable-background="new 0 0 64 64" height="64" viewBox="0 0 64 64" width="64" xmlns="http://www.w3.org/2000/svg"><g><path d="m2 53c0-1.011.596-1.889 1.476-2.388.91-.515 1.524-1.492 1.524-2.612 0-1.381-.933-2.544-2.202-2.893-.457-.125-.798-.503-.798-.977v-.26c0-.474.341-.851.798-.977 1.269-.349 2.202-1.512 2.202-2.893s-.933-2.544-2.202-2.893c-.457-.125-.798-.503-.798-.977v-.26c0-.474.341-.851.798-.977 1.269-.349 2.202-1.512 2.202-2.893 0-1.12-.614-2.097-1.524-2.612-.88-.499-1.476-1.377-1.476-2.388h18c0 1.011-.596 1.889-1.476 2.388-.91.515-1.524 1.492-1.524 2.612 0 1.381.933 2.544 2.202 2.893.457.125.798.503.798.977v.26c0 .474-.341.851-.798.977-1.269.349-2.202 1.512-2.202 2.893s.933 2.544 2.202 2.893c.457.125.798.503.798.977v.26c0 .474-.341.851-.798.977-1.269.349-2.202 1.512-2.202 2.893 0 1.12.614 2.097 1.524 2.612.88.499 1.476 1.377 1.476 2.388z" fill="#f4b2b0"/><g fill="#F66E9F"><path d="m7.999 31h5.999v2h-5.999z"/><path d="m7.999 35h5.999v2h-5.999z"/><path d="m7.999 39h5.999v2h-5.999z"/><path d="m7.999 43h5.999v2h-5.999z"/><path d="m7.999 47h5.999v2h-5.999z"/><path d="m24.999 37.999h1.999v-6h2v-1.999h-5.999v1.999h2z"/><path d="m55 37.999h1.999v-6h2v-1.999h-5.999v1.999h2z"/><path d="m29.999 30h1.999v8h-1.999z"/><path d="m33.999 37.999h3.999c.553 0 1-.447 1-1v-2h-2v1h-1.999v-4h1.999v1h2v-2c0-.553-.447-1-1-1h-3.999c-.553 0-1 .447-1 1v6c0 .553.447 1 1 1z"/><path d="m41.998 34.617.803-.401 1.198 1.198v2.585h1.999v-3c0-.266-.104-.52-.292-.708l-1.019-1.019.758-.379c.339-.169.553-.516.553-.894v-2h-2v1.382l-2 1v-2.381h-1.999v8h1.999z"/><path d="m47.999 37.999h3.999v-2h-2.999v-1h2.999v-2h-2.999v-1h2.999v-2h-3.999c-.553 0-1 .447-1 1v6c0 .553.447 1 1 1z"/><path d="m43.898 6.443-4.243 4.243 1.415 1.414 1.414-1.413 4.243 4.242 1.415-1.415-4.243-4.242 1.414-1.415z"/><path d="m37.535 18.878h-1.441l.268-.804c.12-.359.026-.756-.241-1.023l-1.414-1.415-1.415 1.414.978.978-.708 2.121-1.684-1.684-1.415 1.415 5.657 5.657 1.415-1.415-2.392-2.392.284-.851h1.693l1.828 1.829 1.415-1.414-2.121-2.122c-.187-.189-.442-.294-.707-.294z"/><path d="m41.07 17.757-.707-.707 2.121-2.121-1.415-1.415-2.121 2.121-.706-.707 2.121-2.121-1.415-1.415-2.828 2.829c-.39.391-.39 1.024 0 1.415l4.242 4.243c.195.195.451.292.707.292.257 0 .513-.097.708-.292l2.829-2.829-1.415-1.415z"/><path d="m22.999 40h35.999v2h-35.999z"/><path d="m44.999 44h13.999v2h-13.999z"/><path d="m62.725 20.312-17.992-19c-.187-.197-.445-.31-.715-.312-.234.026-.531.104-.722.296l-24.487 24.704h-16.811c-.552 0-.999.447-.999 1 0 1.336.741 2.554 1.983 3.257.627.355 1.018 1.023 1.018 1.743 0 .898-.604 1.691-1.469 1.929-.916.251-1.531 1.031-1.531 1.941v.26c0 .91.615 1.69 1.531 1.941.865.238 1.469 1.031 1.469 1.929s-.604 1.691-1.469 1.929c-.916.251-1.531 1.031-1.531 1.941v.26c0 .91.615 1.69 1.531 1.941.865.238 1.469 1.031 1.469 1.928-.001.721-.391 1.389-1.018 1.743-1.241.703-1.982 1.921-1.982 3.257 0 .553.447 1 1 1h11.5c-.347.781-.225 1.659.365 2.251l.185.185c.644.643 1.63.758 2.457.289.781-.443 1.768-.308 2.401.326.509.508.705 1.256.514 1.951-.382 1.375-.045 2.761.901 3.707.196.194.451.292.706.292.257 0 .513-.098.708-.293l8.708-8.708h31.553c.553 0 1-.447 1-1v-25.999c0-.553-.447-1-1-1h-3.581l4.289-4.293c.383-.384.391-1.002.019-1.395zm-58.757 31.17c1.252-.708 2.03-2.043 2.032-3.483 0-1.795-1.209-3.381-3-3.87l.062-.273c1.729-.475 2.938-2.062 2.938-3.856 0-1.795-1.209-3.381-3-3.87l.062-.273c1.729-.476 2.938-2.063 2.938-3.857 0-1.439-.779-2.773-2.032-3.483-.247-.14-.453-.316-.612-.517h15.284c-.158.201-.364.378-.61.517-1.253.709-2.03 2.043-2.03 3.483 0 1.795 1.207 3.381 3 3.87l-.063.273c-1.73.475-2.937 2.061-2.937 3.857s1.207 3.381 3 3.87l-.063.273c-1.73.475-2.937 2.061-2.937 3.856-.002 1.439.776 2.773 2.03 3.483.246.139.452.316.61.517h-15.283c.159-.201.365-.377.611-.517zm17.314 8.85c-.03-.254-.009-.524.067-.798.383-1.389-.011-2.882-1.027-3.898-1.27-1.27-3.246-1.536-4.856-.614l-.149-.239c.14-.247.249-.512.333-.784h4.348.001 7.616zm39.716-8.333h-40.145c-.271-.928-.916-1.735-1.838-2.257-.626-.355-1.016-1.022-1.015-1.742 0-.898.603-1.691 1.467-1.929.917-.252 1.533-1.032 1.533-1.942v-.26c0-.91-.616-1.69-1.533-1.941-.864-.238-1.467-1.031-1.467-1.928s.603-1.691 1.467-1.929c.917-.252 1.533-1.032 1.533-1.942v-.26c0-.91-.616-1.69-1.533-1.941-.864-.238-1.467-1.031-1.467-1.928 0-.72.389-1.388 1.016-1.742.922-.522 1.567-1.329 1.839-2.258h40.143zm-5.408-25.999h-14.176l10.292-10.293-1.415-1.415-11.707 11.708h-3.633c-.042-.169-.113-.332-.245-.465l-1.414-1.414-1.415 1.415.465.464h-2.828l-1.171-1.171 1.413-1.415.707.707 1.415-1.414-1.414-1.415c-.188-.188-.443-.292-.707-.292-.266 0-.521.105-.708.292l-2.828 2.829c-.39.391-.39 1.024 0 1.414l.464.465h-5.06l22.365-22.563 16.614 17.543z"/><path d="m46.756 19.999h8.485v2.001h-8.485z" transform="matrix(.707 -.707 .707 .707 .088 42.212)"/><path d="m23.999 49.999h15.999c.553 0 1-.447 1-1v-4c0-.553-.447-1-1-1h-15.999c-.553 0-1 .447-1 1v4c0 .553.447 1 1 1zm1-3.999h13.999v2h-13.999z"/></g></g></svg>